<?xml version="1.0" encoding="utf-8"?>
<!-- Generator: Adobe Illustrator 19.0.0, SVG Export Plug-In . SVG Version: 6.00 Build 0)  -->
<svg version="1.1" id="Layer_1" xmlns="http://www.w3.org/2000/svg" xmlns:xlink="http://www.w3.org/1999/xlink" x="0px" y="0px"
	 viewBox="0 0 94 64" style="enable-background:new 0 0 94 64;" xml:space="preserve">
<style type="text/css">
	.st0{fill:#FFFFFF;}
	.st1{fill:#1D86C8;}
	.st2{fill:#010101;}
</style>
<g>
	<polygon id="XMLID_12_" class="st0" points="27.1,28.1 41.7,60.5 46.3,60 91.1,39.9 92.1,35.3 79.4,6.6 75.6,4.6 28.9,24.5 	"/>
	<path class="st1" d="M74.1,3.6L29.4,22.7c-2.8,1.2-4.1,4.5-2.9,7.3l12.1,28.3c1.2,2.8,4.5,4.1,7.3,2.9L90.6,42
		c2.8-1.2,4.1-4.5,2.9-7.3L81.4,6.5C80.2,3.7,76.9,2.3,74.1,3.6L74.1,3.6z M91.1,36.6l-19.6-7.1l9.4-17C91.4,37.3,91,35.8,91.1,36.6
		z M62.9,39.2l-33.1-8.7l-0.7-1.6c-0.6-1.4,0-2.9,1.4-3.5L75.3,6.2c1.4-0.6,2.9,0,3.5,1.4l0.7,1.6L62.9,39.2z M31.2,33.8L50,38.7
		l-8.4,19C41.1,57.2,41.8,58.5,31.2,33.8L31.2,33.8z M44.3,58.7l8.5-19.2l10.4,2.7c0.6,0.2,1.3-0.1,1.6-0.7l5.2-9.5l19.8,7.1
		C89.5,39.4,44.6,58.6,44.3,58.7L44.3,58.7z"/>
	<path id="XMLID_6_" class="st2" d="M41.7,15"/>
	<g>
		<polygon id="XMLID_5_" class="st1" points="1.5,15.7 1.5,18.7 31.7,18.6 38.7,15.6 		"/>
		<path id="XMLID_4_" class="st1" d="M0,17.2c0,0.8,0.7,1.5,1.5,1.5v-3v0C0.7,15.6,0,16.3,0,17.2z"/>
	</g>
	<path id="XMLID_3_" class="st1" d="M23.8,24.4l-17.5,0v0c-0.1,0-0.1,0-0.2,0l-0.1,0l0,0c-0.7,0.1-1.2,0.7-1.2,1.5
		c0,0.7,0.5,1.4,1.2,1.5l0,0l0.1,0c0.1,0,0.1,0,0.2,0v0l17.1,0C23.2,26.4,23.4,25.4,23.8,24.4z"/>
	<g>
		<polygon id="XMLID_2_" class="st1" points="25.3,33.8 10.6,33.8 10.6,36.8 26.6,36.8 		"/>
		<path id="XMLID_1_" class="st1" d="M9.1,35.3c0,0.8,0.7,1.5,1.5,1.5v-3v0C9.8,33.8,9.1,34.5,9.1,35.3z"/>
	</g>
</g>
</svg>
